<svg id="Capa_1" enable-background="new 0 0 511.995 511.995" height="512" viewBox="0 0 511.995 511.995" width="512" xmlns="http://www.w3.org/2000/svg" xmlns:xlink="http://www.w3.org/1999/xlink"><linearGradient id="SVGID_1_" gradientUnits="userSpaceOnUse" x1="255.998" x2="255.998" y1="479.785" y2="32.21"><stop offset="0" stop-color="#a93aff"/><stop offset="1" stop-color="#ff81ff"/></linearGradient><g><g><g><path d="m172.703 213.794-30-15c-7.406-3.703-16.418-.702-20.124 6.708-3.705 7.41-.702 16.42 6.708 20.125l30 15c7.419 3.709 16.424.691 20.124-6.708 3.705-7.41.702-16.42-6.708-20.125zm196.584-15-30 15c-7.41 3.705-10.413 12.715-6.708 20.125 3.698 7.397 12.702 10.418 20.124 6.708l30-15c7.41-3.705 10.413-12.715 6.708-20.125-3.704-7.409-12.713-10.413-20.124-6.708zm140.823 51.136c-.464-.837-11.078-19.875-29.114-45.562v-157.158c0-8.284-6.716-15-15-15-43.255 0-83.817 21.255-109.064 56.334-32.91-17.484-66.8-26.334-100.937-26.334s-68.026 8.85-100.936 26.334c-25.246-35.078-65.809-56.334-109.064-56.334-8.284 0-15 6.716-15 15v157.157c-18.035 25.688-28.65 44.725-29.114 45.562-1.281 2.337-1.899 4.84-1.881 7.383.02 2.763.796 5.414 2.171 7.678.976 1.608 24.379 39.82 67.018 78.349 38.34 34.644 83.55 61.718 134.621 73.081 2.099 7.591 3.757 15.202 4.943 22.758 3.692 23.529 23.562 40.606 47.242 40.606s43.55-17.077 47.242-40.605c1.186-7.556 2.844-15.168 4.944-22.759 50.982-11.344 96.202-38.365 134.621-73.081 42.639-38.529 66.042-76.741 67.018-78.349 1.44-2.375 2.176-5.109 2.176-7.78-.001-2.436-.647-5.052-1.886-7.28zm-420.176 71.72c-19.854-17.854-35.356-35.868-45.909-49.44h1.971c64.293 0 117.813 50.365 145.21 109.878-34.984-11.099-68.866-31.294-101.272-60.438zm183.667 112.877c-1.388 8.841-8.792 15.258-17.605 15.258s-16.218-6.417-17.605-15.258c-.689-4.392-1.517-8.785-2.472-13.17 6.677.565 13.371.854 20.077.854s13.4-.289 20.078-.854c-.957 4.385-1.784 8.778-2.473 13.17zm149.088-113.446c-32.595 29.453-66.69 49.844-101.906 61.015 27.396-59.516 80.917-109.886 145.212-109.886h1.995c-10.413 13.397-25.679 31.14-45.301 48.871zm43.306-78.871c-83.185 0-152.394 69.197-180.9 147.977-9.631 1.337-19.333 2.023-29.1 2.023s-19.468-.686-29.1-2.024c-28.562-78.936-97.867-147.976-180.9-147.976h-4.304c4.522-7.025 10.071-15.326 16.516-24.363 1.813-2.542 2.788-5.587 2.788-8.71v-145.819c31.571 4.687 59.854 23.971 76.046 52.652 4.151 7.354 13.573 9.841 20.816 5.466 32.115-19.393 65.133-29.227 98.138-29.227s66.022 9.833 98.138 29.227c7.229 4.367 16.658 1.9 20.816-5.466 16.191-28.682 44.475-47.966 76.046-52.652v145.82c0 3.123.975 6.167 2.788 8.71 6.432 9.019 11.984 17.326 16.513 24.363h-4.301z" fill="url(#SVGID_1_)"/></g></g></g></svg>