<svg id="Capa_1" enable-background="new 0 0 512 512" height="512" viewBox="0 0 512 512" width="512" xmlns="http://www.w3.org/2000/svg" xmlns:xlink="http://www.w3.org/1999/xlink"><linearGradient id="SVGID_1_" gradientUnits="userSpaceOnUse" x1="256" x2="256" y1="512" y2="0"><stop offset="0" stop-color="#5558ff"/><stop offset="1" stop-color="#00c0ff"/></linearGradient><g><g><g><path d="m316 180c-8.284 0-15 6.716-15 15s6.716 15 15 15 15-6.716 15-15-6.716-15-15-15zm-120 0c-8.284 0-15 6.716-15 15s6.716 15 15 15 15-6.716 15-15-6.716-15-15-15zm269.716 163.096c-7.568-38.345-14.716-74.562-14.716-148.096 0-107.771-87.204-195-195-195-107.523 0-195 87.477-195 195 0 73.534-7.148 109.751-14.716 148.096-7.514 38.071-15.284 77.438-15.284 153.904 0 8.284 6.716 15 15 15h420c8.284 0 15-6.716 15-15 0-76.466-7.77-115.833-15.284-153.904zm-104.716 138.904h-210v-287c0-24.813 20.187-45 45-45s45 20.187 45 45v23.787l-25.606 25.606c-4.565 4.565-5.697 11.54-2.81 17.314l30 60c2.54 5.083 7.734 8.293 13.416 8.293s10.876-3.21 13.416-8.292l30-60c2.888-5.774 1.756-12.749-2.81-17.314l-25.606-25.607v-23.787c0-24.813 20.187-45 45-45s45 20.187 45 45zm-116.749-224.038 11.749-11.749 11.749 11.749-11.749 23.497zm146.749 224.038v-287c0-41.355-33.645-75-75-75-24.508 0-46.306 11.818-60 30.052-13.694-18.234-35.492-30.052-60-30.052-41.355 0-75 33.645-75 75v287h-59.896c.904-63.65 7.577-97.452 14.611-133.096 7.515-38.071 15.285-77.438 15.285-153.904 0-90.981 74.019-165 165-165 89.513 0 165 72.371 165 165 0 76.466 7.77 115.833 15.284 153.904 7.034 35.644 13.707 69.446 14.611 133.096z" fill="url(#SVGID_1_)"/></g></g></g></svg>