<?xml version="1.0" encoding="iso-8859-1"?>
<!-- Generator: Adobe Illustrator 19.0.0, SVG Export Plug-In . SVG Version: 6.00 Build 0)  -->
<svg version="1.1" id="Capa_1" xmlns="http://www.w3.org/2000/svg" xmlns:xlink="http://www.w3.org/1999/xlink" x="0px" y="0px"
	 viewBox="0 0 512 512" style="enable-background:new 0 0 512 512;" xml:space="preserve">
<path style="fill:#FF6E78;" d="M278.227,420.064L175.072,316.91c-19.25-19.25-50.46-19.25-69.709,0l0,0l0,0
	c-19.25,19.25-19.25,50.46,0,69.709l0,0l103.154,103.154L278.227,420.064z"/>
<path style="fill:#F15561;" d="M121.794,330.522L121.794,330.522c6.417-6.417,16.82-6.417,23.236,0l60.084,60.084
	c6.417,6.417,6.417,16.819,0,23.236l0,0c-6.417,6.417-16.82,6.417-23.236,0l-60.084-60.084
	C115.377,347.341,115.377,336.938,121.794,330.522z"/>
<path style="fill:#FF9199;" d="M209.927,421.474l-81.328-81.328c-19.25-19.25-50.46-19.25-69.709,0l0,0l0,0
	c-19.25,19.25-19.25,50.46,0,69.709l0,0l81.328,81.328L209.927,421.474z"/>
<path style="fill:#FF8089;" d="M56.897,358.57c12.833-12.833,33.64-12.833,46.473,0l11.619,11.619c6.417,6.417,16.82,6.417,23.236,0
	c6.417-6.417,16.82-6.417,23.236,0l23.236,23.236c6.417,6.417,6.417,16.819,0,23.236l-46.473,46.473
	c-6.417,6.417-16.82,6.417-23.236,0l-58.091-58.091C44.063,392.21,44.063,371.404,56.897,358.57L56.897,358.57z"/>
<path style="fill:#FFA6AD;" d="M395.817,325.71h92.945v139.418h-51.055c-27.314,0-54.018,8.085-76.744,23.236l0,0
	c-22.727,15.151-49.43,23.236-76.744,23.236H157.707c-33.978,0-66.768-12.504-92.12-35.128l-50.304-46.87
	c-18.349-16.375-20.463-44.33-4.785-63.277l0,0c16.102-19.461,44.931-22.184,64.392-6.081c0.175,0.145,0.349,0.291,0.522,0.438
	l64.806,57.973h185.89v-23.236l13.942-23.236L395.817,325.71z"/>
<path style="fill:#FF9099;" d="M186.69,418.655h92.945c12.833,0,23.236,10.403,23.236,23.236l0,0
	c0,12.833-10.403,23.236-23.236,23.236H186.69c-12.833,0-23.236-10.403-23.236-23.236l0,0
	C163.454,429.058,173.857,418.655,186.69,418.655z"/>
<path style="fill:#FFC1C6;" d="M465.526,383.8c0-44.916-46.815-81.328-104.564-81.328S256.399,338.884,256.399,383.8H465.526z"/>
<path style="fill:#FFA6AD;" d="M221.544,325.71h197.509l0,0v116.181l0,0H221.544c-32.083,0-58.091-26.008-58.091-58.091l0,0l0,0
	C163.454,351.718,189.462,325.71,221.544,325.71L221.544,325.71L221.544,325.71z"/>
<path style="fill:#FF9099;" d="M488.465,441.891c-1.453-6.252-7.699-10.143-13.951-8.69c-4.317,1.003-7.688,4.373-8.69,8.69H442.29
	v-46.473c-0.005-12.833-10.412-23.233-23.246-23.227c-12.827,0.005-23.223,10.401-23.227,23.227v6.046
	c0,26.007-15.181,48.788-37.863,61.514c-3.99,2.238-7.89,4.667-11.702,7.285c-18.442,12.69-40.943,18.1-63.33,18.1H157.706
	c-28.107,0.041-55.251-10.241-76.278-28.892l-36.23-33.757c-4.694-4.374-12.047-4.114-16.421,0.581
	c-4.36,4.679-4.118,12.003,0.541,16.385l35.319,32.907h0.001l0.103,0.097l0.009,0.009l0.017,0.015l0.028,0.027l0.004,0.004
	c0.01,0.009,0.019,0.017,0.027,0.025l0.008,0.005l0.114,0.107l0.017,0.015c0.075,0.071,0.145,0.136,0.208,0.194l0.014,0.014
	l0.4,0.371c24.302,22.579,56.248,35.128,89.42,35.128h129.21c28.307,0,55.299-9.616,79.177-24.821
	c22.207-14.141,47.987-21.652,74.314-21.652h51.055v-23.235H488.465z"/>
<path style="fill:#FFC1C6;" d="M221.544,325.71c-20.767,0.049-39.914,11.228-50.166,29.288c4.179-3.842,9.635-5.997,15.311-6.052
	c12.833,0,23.236,10.402,23.236,23.235v0.001V383.8c0,19.25,15.605,34.855,34.855,34.855s34.855-15.605,34.855-34.855v-11.619
	c0-12.833,10.402-23.236,23.235-23.236h0.001h116.182V325.71H221.544z"/>
<path style="fill:#F6EDFF;" d="M186.69,383.8L186.69,383.8c0,19.25,15.605,34.855,34.855,34.855h11.619
	c12.833,0,23.236-10.403,23.236-23.236l0,0v-23.237c0-12.833-10.403-23.236-23.236-23.236h-11.619
	C202.295,348.946,186.69,364.551,186.69,383.8L186.69,383.8z"/>
<path style="fill:#5F7BCE;" d="M465.526,302.473L465.526,302.473c25.666,0,46.473,20.807,46.473,46.473v116.182
	c0,25.666-20.807,46.473-46.473,46.473l0,0c-25.666,0-46.473-20.807-46.473-46.473V348.946
	C419.054,323.28,439.86,302.473,465.526,302.473z"/>
<path style="fill:#3F60C4;" d="M430.672,348.946L430.672,348.946c6.417,0,11.619,5.202,11.619,11.619v92.945
	c0,6.417-5.202,11.619-11.619,11.619l0,0c-6.417,0-11.619-5.202-11.619-11.619v-92.945
	C419.054,354.148,424.255,348.946,430.672,348.946z"/>
<path style="fill:#FF4957;" d="M283.622,27.622l-13.525,13.525c-7.566,7.566-19.832,7.566-27.398,0l0,0l-13.524-13.525
	c-36.298-36.298-95.148-36.298-131.445,0l0,0c-36.298,36.298-36.298,95.148,0,131.445l132.316,132.316
	c14.554,14.554,38.152,14.554,52.706,0l132.316-132.316c36.298-36.298,36.298-95.148,0-131.445l0,0
	C378.77-8.675,319.92-8.675,283.622,27.622L283.622,27.622z"/>
<circle style="fill:#FF8B93;" cx="151.835" cy="58.49" r="34.855"/>
<path style="fill:#F22738;" d="M282.751,291.382l132.316-132.315c36.298-36.298,36.298-95.148,0-131.445
	c-17.427-17.427-41.063-27.219-65.709-27.224h-0.028c-24.652-0.028-48.3,9.768-65.709,27.223l-13.525,13.525
	c-3.615,3.619-8.519,5.655-13.634,5.661l-60.149,60.149c-12.829,12.837-12.821,33.644,0.016,46.473
	c12.831,12.822,33.625,12.822,46.456,0l3.987-3.986c12.833-12.833,33.64-12.833,46.473,0s12.833,33.64,0,46.473l-60.084,60.084
	c-8.233,8.231-10.595,19.648-8.264,30.234l5.149,5.149c14.552,14.554,38.147,14.555,52.701,0.003
	C282.749,291.384,282.75,291.383,282.751,291.382L282.751,291.382z"/>
<g>
</g>
<g>
</g>
<g>
</g>
<g>
</g>
<g>
</g>
<g>
</g>
<g>
</g>
<g>
</g>
<g>
</g>
<g>
</g>
<g>
</g>
<g>
</g>
<g>
</g>
<g>
</g>
<g>
</g>
</svg>
