<svg id="Outline" xmlns="http://www.w3.org/2000/svg" viewBox="0 0 24 24"><title>138 book</title><linearGradient id="SVGID_1_" gradientUnits="userSpaceOnUse" x1="255.99" x2="255.99" y1="511.98" y2="0"><stop offset="0" stop-color="#a93aff"/><stop offset="1" stop-color="#ff81ff"/></linearGradient><g><g><g><path d="m195.99 301.98c-8.284 0-15 6.716-15 15s6.716 15 15 15 15-6.716 15-15-6.716-15-15-15zm90 120c-6.423 0-11.9-4.066-14.034-9.753l24.641-24.641c5.858-5.858 5.858-15.355 0-21.213-5.857-5.858-15.355-5.858-21.213 0l-19.394 19.393-19.394-19.393c-5.857-5.858-15.355-5.858-21.213 0s-5.858 15.355 0 21.213l24.641 24.641c-2.134 5.687-7.611 9.753-14.034 9.753-8.284 0-15 6.716-15 15s6.716 15 15 15c11.515 0 22.033-4.347 30-11.486 7.967 7.139 18.485 11.486 30 11.486 8.284 0 15-6.716 15-15s-6.716-15-15-15zm76.947-181.868c13.746-20.677 26.617-46.765 36.824-74.809 12.868-35.353 20.383-70.845 21.163-99.939 1.184-44.188-13.617-58.941-26.242-63.536-12.632-4.596-33.365-2.746-60.415 32.184-17.548 22.661-34.335 54.712-47.27 90.249-7.247 19.909-12.849 39.934-16.473 58.768-9.729-1.395-19.342-1.395-29.071 0-3.624-18.833-9.226-38.858-16.472-58.768-12.934-35.537-29.722-67.587-47.27-90.249-27.048-34.93-47.783-36.782-60.414-32.184-12.625 4.595-27.426 19.348-26.241 63.536.78 29.094 8.295 64.586 21.163 99.939 10.207 28.044 23.077 54.131 36.824 74.809-34.58 40.254-58.053 94.945-58.053 136.868 0 74.439 74.019 135 165 135s165-60.561 165-135c0-41.923-23.473-96.614-58.053-136.868zm-10.303 209.968c-25.714 20.571-60.037 31.9-96.644 31.9s-70.93-11.329-96.644-31.9c-24.734-19.787-38.356-45.748-38.356-73.1 0-37.51 24.415-90.209 58.052-125.307 5.076-5.296 5.577-13.487 1.184-19.362-14.691-19.646-28.831-47.087-39.816-77.269-11.558-31.756-18.42-63.411-19.323-89.133-.931-26.545 4.969-35.179 6.457-35.886.079-.018.177-.028.296-.028 2.303 0 12.053 3.753 27.234 23.798 15.313 20.219 30.128 48.889 41.717 80.729 8.625 23.699 14.705 47.417 17.581 68.59 1.243 9.157 10.404 15.025 19.242 12.328 7.521-2.295 15.05-3.459 22.376-3.459s14.855 1.164 22.376 3.459c8.837 2.699 17.999-3.174 19.242-12.328 2.876-21.173 8.955-44.891 17.581-68.59 11.589-31.84 26.404-60.51 41.717-80.729 15.963-21.078 25.927-24.135 27.507-23.778 1.51.715 7.411 9.348 6.479 35.894-.902 25.723-7.764 57.378-19.322 89.134-10.986 30.182-25.126 57.624-39.816 77.269-4.393 5.875-3.892 14.065 1.184 19.362 33.638 35.098 58.052 87.797 58.052 125.307 0 27.351-13.622 53.312-38.356 73.099zm-36.644-148.1c-8.284 0-15 6.716-15 15s6.716 15 15 15 15-6.716 15-15-6.716-15-15-15z" fill="url(#SVGID_1_)"/></g></g></g><path d="M17,0H7A5.006,5.006,0,0,0,2,5V20a4,4,0,0,0,4,4H17a5.006,5.006,0,0,0,5-5V5A5.006,5.006,0,0,0,17,0Zm3,5V16H8V2h9A3,3,0,0,1,20,5ZM6,2.172V16a3.98,3.98,0,0,0-2,.537V5A3,3,0,0,1,6,2.172ZM17,22H6a2,2,0,0,1,0-4H20v1A3,3,0,0,1,17,22Z"/></svg>