<svg id="Capa_1" enable-background="new 0 0 512 512" height="512" viewBox="0 0 512 512" width="512" xmlns="http://www.w3.org/2000/svg"><g><path d="m489.94 402.532v61.704h-168.84v23.522h-130.2v-23.522h-168.84v-61.704c0-9.669 9.042-16.916 18.59-14.669 24.12 5.726 40.17 8.574 60.72 8.304 35.216-.46 50.073-7.462 92.07-10.712 26.84-2.079 48.67 10.332 62.56 27.959 13.89-17.627 35.72-30.038 62.56-27.959 41.946 3.246 56.887 10.253 92.07 10.712 20.55.27 36.6-2.578 60.72-8.304 9.532-2.244 18.59 4.982 18.59 14.669z" fill="#fff4f4"/><path d="m489.94 402.532v61.704h-168.84v23.522h-65.1v-74.345c13.89-17.627 35.72-30.038 62.56-27.959 41.946 3.246 56.887 10.253 92.07 10.712 20.55.27 36.6-2.578 60.72-8.304 9.532-2.243 18.59 4.983 18.59 14.67z" fill="#efe2dd"/><path d="m512 460.149c0 8.334-6.76 15.079-15.09 15.079h-160.13c-6.48 21.264-26.29 36.772-49.65 36.772h-62.26c-23.36 0-43.17-15.508-49.65-36.772h-160.13c-8.33 0-15.09-6.745-15.09-15.079 0-8.324 6.76-15.079 15.09-15.079h172.98c8.33 0 15.09 6.755 15.09 15.079 0 11.961 9.74 21.694 21.71 21.694h62.26c11.97 0 21.71-9.733 21.71-21.694 0-8.324 6.76-15.079 15.09-15.079h172.98c8.33 0 15.09 6.755 15.09 15.079z" fill="#ff6c6c"/><path d="m512 460.149c0 8.334-6.76 15.079-15.09 15.079h-160.13c-6.48 21.264-26.29 36.772-49.65 36.772h-31.13v-30.158h31.13c11.97 0 21.71-9.733 21.71-21.694 0-8.324 6.76-15.079 15.09-15.079h172.98c8.33.001 15.09 6.756 15.09 15.08z" fill="#e63950"/><path d="m371.62 130.085c0 24.961-7.92 48.664-22.91 68.529-15.69 20.815-26.09 43.837-30.97 68.529-.4 1.999-.76 4.017-1.08 6.035l-20.21 15.089h-83.9l-14.12-15.279c-.31-1.958-.66-3.907-1.04-5.845-4.85-24.772-15.17-47.675-30.76-68.199-15.52-20.445-23.52-44.837-23.14-70.567.91-61.434 50.939-111.419 112.44-112.267h.07c.52-.01 1.04-.01 1.55-.01h.02c62.938 0 114.05 50.905 114.05 113.985z" fill="#ffda2d"/><path d="m371.62 130.085c0 24.961-7.92 48.664-22.91 68.529-15.69 20.815-26.09 43.837-30.97 68.529-.4 1.999-.76 4.017-1.08 6.035l-20.21 15.089h-38.9v-272.167h.02c62.938 0 114.05 50.905 114.05 113.985z" fill="#fdbf00"/><g><path d="m99.448 130.275h-50.01c-8.284 0-15-6.711-15-14.989s6.716-14.989 15-14.989h50.01c8.284 0 15 6.711 15 14.989s-6.715 14.989-15 14.989z" fill="#fdbf00"/></g><g><path d="m444.588 228.496-43.089-25.366c-7.138-4.202-9.515-13.39-5.31-20.522 4.205-7.133 13.4-9.507 20.538-5.306l43.089 25.366c7.138 4.202 9.515 13.39 5.31 20.522-4.201 7.128-13.394 9.511-20.538 5.306z" fill="#ff9100"/></g><g><path d="m49.975 223.19c-4.205-7.132-1.828-16.32 5.31-20.522l43.089-25.366c7.137-4.201 16.332-1.827 20.538 5.306 4.205 7.132 1.828 16.32-5.31 20.522l-43.089 25.366c-7.137 4.201-16.332 1.829-20.538-5.306z" fill="#fdbf00"/></g><g><path d="m396.19 47.965c-4.205-7.132-1.828-16.32 5.31-20.522l43.089-25.366c7.136-4.201 16.333-1.827 20.538 5.306 4.205 7.132 1.828 16.32-5.31 20.522l-43.089 25.366c-7.138 4.202-16.332 1.829-20.538-5.306z" fill="#ff9100"/></g><g><path d="m98.373 53.271-43.089-25.366c-7.138-4.202-9.515-13.39-5.31-20.522 4.207-7.133 13.4-9.507 20.538-5.306l43.089 25.366c7.138 4.202 9.515 13.39 5.31 20.522-4.204 7.13-13.396 9.51-20.538 5.306z" fill="#fdbf00"/></g><g><path d="m465.662 130.275h-50.01c-8.284 0-15-6.711-15-14.989s6.716-14.989 15-14.989h50.01c8.284 0 15 6.711 15 14.989s-6.715 14.989-15 14.989z" fill="#ff9100"/></g><g><path d="m272.55 169.565v118.701c0 8.274-6.72 14.989-15 14.989-.52 0-1.04-.03-1.55-.08-7.55-.779-13.45-7.155-13.45-14.909v-118.701c0-7.754 5.9-14.129 13.45-14.909.51-.05 1.03-.08 1.55-.08 8.28.001 15 6.716 15 14.989z" fill="#fdbf00"/></g><path d="m272.55 169.565v118.701c0 8.274-6.72 14.989-15 14.989v-148.678c8.28 0 15 6.715 15 14.988z" fill="#ff9100"/><path d="m316.66 273.178-.22 31.437c-.18 23.043-19.72 41.789-43.56 41.789h-30.9c-24.02 0-43.54-18.876-43.54-42.088v-31.137h118.22z" fill="#5c7099"/><path d="m316.66 273.178-.22 31.437c-.18 23.043-19.72 41.789-43.56 41.789h-15.33v-73.225h59.11z" fill="#404c80"/></g></svg>